%FSLAX45Y45*%
G04 Gerber Fmt 4.5, Leading zero omitted, Abs format (unit mm)*
G04 Created by KiCad (PCBNEW (5.1.7-0-10_14)) date 2020-10-07 21:58:24*
%MOMM*%
%LPD*%
G01*
G04 APERTURE LIST*
%TA.AperFunction,Profile*%
%ADD10C,0.050000*%
%TD*%
%ADD11C,0.200000*%
%ADD12C,0.300000*%
G04 APERTURE END LIST*
D10*
X13779500Y-8826500D02*
X13779500Y-7556500D01*
X16192500Y-8826500D02*
X13779500Y-8826500D01*
X16192500Y-7556500D02*
X16192500Y-8826500D01*
X13779500Y-7556500D02*
X16192500Y-7556500D01*
D11*
X14516500Y-8039500D02*
X14566500Y-8089500D01*
X14566500Y-8039500D02*
X14516500Y-8089500D01*
X15405500Y-8039500D02*
X15455500Y-8089500D01*
X15455500Y-8039500D02*
X15405500Y-8089500D01*
X15798000Y-7937500D02*
G75*
G03*
X15798000Y-7937500I-50000J0D01*
G01*
X15798000Y-8191500D02*
G75*
G03*
X15798000Y-8191500I-50000J0D01*
G01*
X15798000Y-8445500D02*
G75*
G03*
X15798000Y-8445500I-50000J0D01*
G01*
X14274000Y-7937500D02*
G75*
G03*
X14274000Y-7937500I-50000J0D01*
G01*
X14274000Y-8191500D02*
G75*
G03*
X14274000Y-8191500I-50000J0D01*
G01*
X14274000Y-8445500D02*
G75*
G03*
X14274000Y-8445500I-50000J0D01*
G01*
X16192500Y-8701500D02*
X16192500Y-8951500D01*
X16067500Y-8826500D02*
X16317500Y-8826500D01*
X16192500Y-7431500D02*
X16192500Y-7681500D01*
X16067500Y-7556500D02*
X16317500Y-7556500D01*
X13779500Y-7431500D02*
X13779500Y-7681500D01*
X13654500Y-7556500D02*
X13904500Y-7556500D01*
X13779500Y-8701500D02*
X13779500Y-8951500D01*
X13654500Y-8826500D02*
X13904500Y-8826500D01*
D12*
X14063428Y-9294714D02*
X14063428Y-8994714D01*
X14134857Y-8994714D01*
X14177714Y-9009000D01*
X14206286Y-9037572D01*
X14220571Y-9066143D01*
X14234857Y-9123286D01*
X14234857Y-9166143D01*
X14220571Y-9223286D01*
X14206286Y-9251857D01*
X14177714Y-9280429D01*
X14134857Y-9294714D01*
X14063428Y-9294714D01*
X14363428Y-9294714D02*
X14363428Y-9094714D01*
X14363428Y-9151857D02*
X14377714Y-9123286D01*
X14392000Y-9109000D01*
X14420571Y-9094714D01*
X14449143Y-9094714D01*
X14549143Y-9294714D02*
X14549143Y-9094714D01*
X14549143Y-8994714D02*
X14534857Y-9009000D01*
X14549143Y-9023286D01*
X14563428Y-9009000D01*
X14549143Y-8994714D01*
X14549143Y-9023286D01*
X14734857Y-9294714D02*
X14706286Y-9280429D01*
X14692000Y-9251857D01*
X14692000Y-8994714D01*
X14892000Y-9294714D02*
X14863428Y-9280429D01*
X14849143Y-9251857D01*
X14849143Y-8994714D01*
X15234857Y-9294714D02*
X15234857Y-8994714D01*
X15334857Y-9209000D01*
X15434857Y-8994714D01*
X15434857Y-9294714D01*
X15706286Y-9294714D02*
X15706286Y-9137572D01*
X15692000Y-9109000D01*
X15663428Y-9094714D01*
X15606286Y-9094714D01*
X15577714Y-9109000D01*
X15706286Y-9280429D02*
X15677714Y-9294714D01*
X15606286Y-9294714D01*
X15577714Y-9280429D01*
X15563428Y-9251857D01*
X15563428Y-9223286D01*
X15577714Y-9194714D01*
X15606286Y-9180429D01*
X15677714Y-9180429D01*
X15706286Y-9166143D01*
X15849143Y-9094714D02*
X15849143Y-9394714D01*
X15849143Y-9109000D02*
X15877714Y-9094714D01*
X15934857Y-9094714D01*
X15963428Y-9109000D01*
X15977714Y-9123286D01*
X15992000Y-9151857D01*
X15992000Y-9237572D01*
X15977714Y-9266143D01*
X15963428Y-9280429D01*
X15934857Y-9294714D01*
X15877714Y-9294714D01*
X15849143Y-9280429D01*
X16120571Y-9266143D02*
X16134857Y-9280429D01*
X16120571Y-9294714D01*
X16106286Y-9280429D01*
X16120571Y-9266143D01*
X16120571Y-9294714D01*
X16120571Y-9109000D02*
X16134857Y-9123286D01*
X16120571Y-9137572D01*
X16106286Y-9123286D01*
X16120571Y-9109000D01*
X16120571Y-9137572D01*
X13727000Y-9764000D02*
X13777000Y-9814000D01*
X13777000Y-9764000D02*
X13727000Y-9814000D01*
X14120571Y-9624714D02*
X14149143Y-9624714D01*
X14177714Y-9639000D01*
X14192000Y-9653286D01*
X14206286Y-9681857D01*
X14220571Y-9739000D01*
X14220571Y-9810429D01*
X14206286Y-9867572D01*
X14192000Y-9896143D01*
X14177714Y-9910429D01*
X14149143Y-9924714D01*
X14120571Y-9924714D01*
X14092000Y-9910429D01*
X14077714Y-9896143D01*
X14063428Y-9867572D01*
X14049143Y-9810429D01*
X14049143Y-9739000D01*
X14063428Y-9681857D01*
X14077714Y-9653286D01*
X14092000Y-9639000D01*
X14120571Y-9624714D01*
X14349143Y-9896143D02*
X14363428Y-9910429D01*
X14349143Y-9924714D01*
X14334857Y-9910429D01*
X14349143Y-9896143D01*
X14349143Y-9924714D01*
X14634857Y-9624714D02*
X14492000Y-9624714D01*
X14477714Y-9767572D01*
X14492000Y-9753286D01*
X14520571Y-9739000D01*
X14592000Y-9739000D01*
X14620571Y-9753286D01*
X14634857Y-9767572D01*
X14649143Y-9796143D01*
X14649143Y-9867572D01*
X14634857Y-9896143D01*
X14620571Y-9910429D01*
X14592000Y-9924714D01*
X14520571Y-9924714D01*
X14492000Y-9910429D01*
X14477714Y-9896143D01*
X14834857Y-9624714D02*
X14863428Y-9624714D01*
X14892000Y-9639000D01*
X14906286Y-9653286D01*
X14920571Y-9681857D01*
X14934857Y-9739000D01*
X14934857Y-9810429D01*
X14920571Y-9867572D01*
X14906286Y-9896143D01*
X14892000Y-9910429D01*
X14863428Y-9924714D01*
X14834857Y-9924714D01*
X14806286Y-9910429D01*
X14792000Y-9896143D01*
X14777714Y-9867572D01*
X14763428Y-9810429D01*
X14763428Y-9739000D01*
X14777714Y-9681857D01*
X14792000Y-9653286D01*
X14806286Y-9639000D01*
X14834857Y-9624714D01*
X15063428Y-9924714D02*
X15063428Y-9724714D01*
X15063428Y-9753286D02*
X15077714Y-9739000D01*
X15106286Y-9724714D01*
X15149143Y-9724714D01*
X15177714Y-9739000D01*
X15192000Y-9767572D01*
X15192000Y-9924714D01*
X15192000Y-9767572D02*
X15206286Y-9739000D01*
X15234857Y-9724714D01*
X15277714Y-9724714D01*
X15306286Y-9739000D01*
X15320571Y-9767572D01*
X15320571Y-9924714D01*
X15463428Y-9924714D02*
X15463428Y-9724714D01*
X15463428Y-9753286D02*
X15477714Y-9739000D01*
X15506286Y-9724714D01*
X15549143Y-9724714D01*
X15577714Y-9739000D01*
X15592000Y-9767572D01*
X15592000Y-9924714D01*
X15592000Y-9767572D02*
X15606286Y-9739000D01*
X15634857Y-9724714D01*
X15677714Y-9724714D01*
X15706286Y-9739000D01*
X15720571Y-9767572D01*
X15720571Y-9924714D01*
X16306286Y-9610429D02*
X16049143Y-9996143D01*
X16692000Y-9624714D02*
X16720571Y-9624714D01*
X16749143Y-9639000D01*
X16763428Y-9653286D01*
X16777714Y-9681857D01*
X16792000Y-9739000D01*
X16792000Y-9810429D01*
X16777714Y-9867572D01*
X16763428Y-9896143D01*
X16749143Y-9910429D01*
X16720571Y-9924714D01*
X16692000Y-9924714D01*
X16663428Y-9910429D01*
X16649143Y-9896143D01*
X16634857Y-9867572D01*
X16620571Y-9810429D01*
X16620571Y-9739000D01*
X16634857Y-9681857D01*
X16649143Y-9653286D01*
X16663428Y-9639000D01*
X16692000Y-9624714D01*
X16920571Y-9896143D02*
X16934857Y-9910429D01*
X16920571Y-9924714D01*
X16906286Y-9910429D01*
X16920571Y-9896143D01*
X16920571Y-9924714D01*
X17120571Y-9624714D02*
X17149143Y-9624714D01*
X17177714Y-9639000D01*
X17192000Y-9653286D01*
X17206286Y-9681857D01*
X17220571Y-9739000D01*
X17220571Y-9810429D01*
X17206286Y-9867572D01*
X17192000Y-9896143D01*
X17177714Y-9910429D01*
X17149143Y-9924714D01*
X17120571Y-9924714D01*
X17092000Y-9910429D01*
X17077714Y-9896143D01*
X17063428Y-9867572D01*
X17049143Y-9810429D01*
X17049143Y-9739000D01*
X17063428Y-9681857D01*
X17077714Y-9653286D01*
X17092000Y-9639000D01*
X17120571Y-9624714D01*
X17334857Y-9653286D02*
X17349143Y-9639000D01*
X17377714Y-9624714D01*
X17449143Y-9624714D01*
X17477714Y-9639000D01*
X17492000Y-9653286D01*
X17506286Y-9681857D01*
X17506286Y-9710429D01*
X17492000Y-9753286D01*
X17320571Y-9924714D01*
X17506286Y-9924714D01*
X17692000Y-9624714D02*
X17720571Y-9624714D01*
X17749143Y-9639000D01*
X17763428Y-9653286D01*
X17777714Y-9681857D01*
X17792000Y-9739000D01*
X17792000Y-9810429D01*
X17777714Y-9867572D01*
X17763428Y-9896143D01*
X17749143Y-9910429D01*
X17720571Y-9924714D01*
X17692000Y-9924714D01*
X17663428Y-9910429D01*
X17649143Y-9896143D01*
X17634857Y-9867572D01*
X17620571Y-9810429D01*
X17620571Y-9739000D01*
X17634857Y-9681857D01*
X17649143Y-9653286D01*
X17663428Y-9639000D01*
X17692000Y-9624714D01*
X17906286Y-9624714D02*
X17906286Y-9681857D01*
X18020571Y-9624714D02*
X18020571Y-9681857D01*
X18463428Y-10039000D02*
X18449143Y-10024714D01*
X18420571Y-9981857D01*
X18406286Y-9953286D01*
X18392000Y-9910429D01*
X18377714Y-9839000D01*
X18377714Y-9781857D01*
X18392000Y-9710429D01*
X18406286Y-9667572D01*
X18420571Y-9639000D01*
X18449143Y-9596143D01*
X18463428Y-9581857D01*
X18563428Y-9653286D02*
X18577714Y-9639000D01*
X18606286Y-9624714D01*
X18677714Y-9624714D01*
X18706286Y-9639000D01*
X18720571Y-9653286D01*
X18734857Y-9681857D01*
X18734857Y-9710429D01*
X18720571Y-9753286D01*
X18549143Y-9924714D01*
X18734857Y-9924714D01*
X19092000Y-9924714D02*
X19092000Y-9624714D01*
X19220571Y-9924714D02*
X19220571Y-9767572D01*
X19206286Y-9739000D01*
X19177714Y-9724714D01*
X19134857Y-9724714D01*
X19106286Y-9739000D01*
X19092000Y-9753286D01*
X19406286Y-9924714D02*
X19377714Y-9910429D01*
X19363428Y-9896143D01*
X19349143Y-9867572D01*
X19349143Y-9781857D01*
X19363428Y-9753286D01*
X19377714Y-9739000D01*
X19406286Y-9724714D01*
X19449143Y-9724714D01*
X19477714Y-9739000D01*
X19492000Y-9753286D01*
X19506286Y-9781857D01*
X19506286Y-9867572D01*
X19492000Y-9896143D01*
X19477714Y-9910429D01*
X19449143Y-9924714D01*
X19406286Y-9924714D01*
X19677714Y-9924714D02*
X19649143Y-9910429D01*
X19634857Y-9881857D01*
X19634857Y-9624714D01*
X19906286Y-9910429D02*
X19877714Y-9924714D01*
X19820571Y-9924714D01*
X19792000Y-9910429D01*
X19777714Y-9881857D01*
X19777714Y-9767572D01*
X19792000Y-9739000D01*
X19820571Y-9724714D01*
X19877714Y-9724714D01*
X19906286Y-9739000D01*
X19920571Y-9767572D01*
X19920571Y-9796143D01*
X19777714Y-9824714D01*
X20034857Y-9910429D02*
X20063428Y-9924714D01*
X20120571Y-9924714D01*
X20149143Y-9910429D01*
X20163428Y-9881857D01*
X20163428Y-9867572D01*
X20149143Y-9839000D01*
X20120571Y-9824714D01*
X20077714Y-9824714D01*
X20049143Y-9810429D01*
X20034857Y-9781857D01*
X20034857Y-9767572D01*
X20049143Y-9739000D01*
X20077714Y-9724714D01*
X20120571Y-9724714D01*
X20149143Y-9739000D01*
X20263428Y-10039000D02*
X20277714Y-10024714D01*
X20306286Y-9981857D01*
X20320571Y-9953286D01*
X20334857Y-9910429D01*
X20349143Y-9839000D01*
X20349143Y-9781857D01*
X20334857Y-9710429D01*
X20320571Y-9667572D01*
X20306286Y-9639000D01*
X20277714Y-9596143D01*
X20263428Y-9581857D01*
X13777000Y-10185000D02*
G75*
G03*
X13777000Y-10185000I-50000J0D01*
G01*
X14220571Y-10320714D02*
X14049143Y-10320714D01*
X14134857Y-10320714D02*
X14134857Y-10020714D01*
X14106286Y-10063572D01*
X14077714Y-10092143D01*
X14049143Y-10106429D01*
X14349143Y-10292143D02*
X14363428Y-10306429D01*
X14349143Y-10320714D01*
X14334857Y-10306429D01*
X14349143Y-10292143D01*
X14349143Y-10320714D01*
X14549143Y-10020714D02*
X14577714Y-10020714D01*
X14606286Y-10035000D01*
X14620571Y-10049286D01*
X14634857Y-10077857D01*
X14649143Y-10135000D01*
X14649143Y-10206429D01*
X14634857Y-10263572D01*
X14620571Y-10292143D01*
X14606286Y-10306429D01*
X14577714Y-10320714D01*
X14549143Y-10320714D01*
X14520571Y-10306429D01*
X14506286Y-10292143D01*
X14492000Y-10263572D01*
X14477714Y-10206429D01*
X14477714Y-10135000D01*
X14492000Y-10077857D01*
X14506286Y-10049286D01*
X14520571Y-10035000D01*
X14549143Y-10020714D01*
X14834857Y-10020714D02*
X14863428Y-10020714D01*
X14892000Y-10035000D01*
X14906286Y-10049286D01*
X14920571Y-10077857D01*
X14934857Y-10135000D01*
X14934857Y-10206429D01*
X14920571Y-10263572D01*
X14906286Y-10292143D01*
X14892000Y-10306429D01*
X14863428Y-10320714D01*
X14834857Y-10320714D01*
X14806286Y-10306429D01*
X14792000Y-10292143D01*
X14777714Y-10263572D01*
X14763428Y-10206429D01*
X14763428Y-10135000D01*
X14777714Y-10077857D01*
X14792000Y-10049286D01*
X14806286Y-10035000D01*
X14834857Y-10020714D01*
X15063428Y-10320714D02*
X15063428Y-10120714D01*
X15063428Y-10149286D02*
X15077714Y-10135000D01*
X15106286Y-10120714D01*
X15149143Y-10120714D01*
X15177714Y-10135000D01*
X15192000Y-10163572D01*
X15192000Y-10320714D01*
X15192000Y-10163572D02*
X15206286Y-10135000D01*
X15234857Y-10120714D01*
X15277714Y-10120714D01*
X15306286Y-10135000D01*
X15320571Y-10163572D01*
X15320571Y-10320714D01*
X15463428Y-10320714D02*
X15463428Y-10120714D01*
X15463428Y-10149286D02*
X15477714Y-10135000D01*
X15506286Y-10120714D01*
X15549143Y-10120714D01*
X15577714Y-10135000D01*
X15592000Y-10163572D01*
X15592000Y-10320714D01*
X15592000Y-10163572D02*
X15606286Y-10135000D01*
X15634857Y-10120714D01*
X15677714Y-10120714D01*
X15706286Y-10135000D01*
X15720571Y-10163572D01*
X15720571Y-10320714D01*
X16306286Y-10006429D02*
X16049143Y-10392143D01*
X16692000Y-10020714D02*
X16720571Y-10020714D01*
X16749143Y-10035000D01*
X16763428Y-10049286D01*
X16777714Y-10077857D01*
X16792000Y-10135000D01*
X16792000Y-10206429D01*
X16777714Y-10263572D01*
X16763428Y-10292143D01*
X16749143Y-10306429D01*
X16720571Y-10320714D01*
X16692000Y-10320714D01*
X16663428Y-10306429D01*
X16649143Y-10292143D01*
X16634857Y-10263572D01*
X16620571Y-10206429D01*
X16620571Y-10135000D01*
X16634857Y-10077857D01*
X16649143Y-10049286D01*
X16663428Y-10035000D01*
X16692000Y-10020714D01*
X16920571Y-10292143D02*
X16934857Y-10306429D01*
X16920571Y-10320714D01*
X16906286Y-10306429D01*
X16920571Y-10292143D01*
X16920571Y-10320714D01*
X17120571Y-10020714D02*
X17149143Y-10020714D01*
X17177714Y-10035000D01*
X17192000Y-10049286D01*
X17206286Y-10077857D01*
X17220571Y-10135000D01*
X17220571Y-10206429D01*
X17206286Y-10263572D01*
X17192000Y-10292143D01*
X17177714Y-10306429D01*
X17149143Y-10320714D01*
X17120571Y-10320714D01*
X17092000Y-10306429D01*
X17077714Y-10292143D01*
X17063428Y-10263572D01*
X17049143Y-10206429D01*
X17049143Y-10135000D01*
X17063428Y-10077857D01*
X17077714Y-10049286D01*
X17092000Y-10035000D01*
X17120571Y-10020714D01*
X17320571Y-10020714D02*
X17506286Y-10020714D01*
X17406286Y-10135000D01*
X17449143Y-10135000D01*
X17477714Y-10149286D01*
X17492000Y-10163572D01*
X17506286Y-10192143D01*
X17506286Y-10263572D01*
X17492000Y-10292143D01*
X17477714Y-10306429D01*
X17449143Y-10320714D01*
X17363428Y-10320714D01*
X17334857Y-10306429D01*
X17320571Y-10292143D01*
X17649143Y-10320714D02*
X17706286Y-10320714D01*
X17734857Y-10306429D01*
X17749143Y-10292143D01*
X17777714Y-10249286D01*
X17792000Y-10192143D01*
X17792000Y-10077857D01*
X17777714Y-10049286D01*
X17763428Y-10035000D01*
X17734857Y-10020714D01*
X17677714Y-10020714D01*
X17649143Y-10035000D01*
X17634857Y-10049286D01*
X17620571Y-10077857D01*
X17620571Y-10149286D01*
X17634857Y-10177857D01*
X17649143Y-10192143D01*
X17677714Y-10206429D01*
X17734857Y-10206429D01*
X17763428Y-10192143D01*
X17777714Y-10177857D01*
X17792000Y-10149286D01*
X17906286Y-10020714D02*
X17906286Y-10077857D01*
X18020571Y-10020714D02*
X18020571Y-10077857D01*
X18463428Y-10435000D02*
X18449143Y-10420714D01*
X18420571Y-10377857D01*
X18406286Y-10349286D01*
X18392000Y-10306429D01*
X18377714Y-10235000D01*
X18377714Y-10177857D01*
X18392000Y-10106429D01*
X18406286Y-10063572D01*
X18420571Y-10035000D01*
X18449143Y-9992143D01*
X18463428Y-9977857D01*
X18706286Y-10020714D02*
X18649143Y-10020714D01*
X18620571Y-10035000D01*
X18606286Y-10049286D01*
X18577714Y-10092143D01*
X18563428Y-10149286D01*
X18563428Y-10263572D01*
X18577714Y-10292143D01*
X18592000Y-10306429D01*
X18620571Y-10320714D01*
X18677714Y-10320714D01*
X18706286Y-10306429D01*
X18720571Y-10292143D01*
X18734857Y-10263572D01*
X18734857Y-10192143D01*
X18720571Y-10163572D01*
X18706286Y-10149286D01*
X18677714Y-10135000D01*
X18620571Y-10135000D01*
X18592000Y-10149286D01*
X18577714Y-10163572D01*
X18563428Y-10192143D01*
X19092000Y-10320714D02*
X19092000Y-10020714D01*
X19220571Y-10320714D02*
X19220571Y-10163572D01*
X19206286Y-10135000D01*
X19177714Y-10120714D01*
X19134857Y-10120714D01*
X19106286Y-10135000D01*
X19092000Y-10149286D01*
X19406286Y-10320714D02*
X19377714Y-10306429D01*
X19363428Y-10292143D01*
X19349143Y-10263572D01*
X19349143Y-10177857D01*
X19363428Y-10149286D01*
X19377714Y-10135000D01*
X19406286Y-10120714D01*
X19449143Y-10120714D01*
X19477714Y-10135000D01*
X19492000Y-10149286D01*
X19506286Y-10177857D01*
X19506286Y-10263572D01*
X19492000Y-10292143D01*
X19477714Y-10306429D01*
X19449143Y-10320714D01*
X19406286Y-10320714D01*
X19677714Y-10320714D02*
X19649143Y-10306429D01*
X19634857Y-10277857D01*
X19634857Y-10020714D01*
X19906286Y-10306429D02*
X19877714Y-10320714D01*
X19820571Y-10320714D01*
X19792000Y-10306429D01*
X19777714Y-10277857D01*
X19777714Y-10163572D01*
X19792000Y-10135000D01*
X19820571Y-10120714D01*
X19877714Y-10120714D01*
X19906286Y-10135000D01*
X19920571Y-10163572D01*
X19920571Y-10192143D01*
X19777714Y-10220714D01*
X20034857Y-10306429D02*
X20063428Y-10320714D01*
X20120571Y-10320714D01*
X20149143Y-10306429D01*
X20163428Y-10277857D01*
X20163428Y-10263572D01*
X20149143Y-10235000D01*
X20120571Y-10220714D01*
X20077714Y-10220714D01*
X20049143Y-10206429D01*
X20034857Y-10177857D01*
X20034857Y-10163572D01*
X20049143Y-10135000D01*
X20077714Y-10120714D01*
X20120571Y-10120714D01*
X20149143Y-10135000D01*
X20263428Y-10435000D02*
X20277714Y-10420714D01*
X20306286Y-10377857D01*
X20320571Y-10349286D01*
X20334857Y-10306429D01*
X20349143Y-10235000D01*
X20349143Y-10177857D01*
X20334857Y-10106429D01*
X20320571Y-10063572D01*
X20306286Y-10035000D01*
X20277714Y-9992143D01*
X20263428Y-9977857D01*
X13652000Y-10456000D02*
X13652000Y-10706000D01*
X13527000Y-10581000D02*
X13777000Y-10581000D01*
X14049143Y-10445286D02*
X14063428Y-10431000D01*
X14092000Y-10416714D01*
X14163428Y-10416714D01*
X14192000Y-10431000D01*
X14206286Y-10445286D01*
X14220571Y-10473857D01*
X14220571Y-10502429D01*
X14206286Y-10545286D01*
X14034857Y-10716714D01*
X14220571Y-10716714D01*
X14349143Y-10688143D02*
X14363428Y-10702429D01*
X14349143Y-10716714D01*
X14334857Y-10702429D01*
X14349143Y-10688143D01*
X14349143Y-10716714D01*
X14634857Y-10416714D02*
X14492000Y-10416714D01*
X14477714Y-10559572D01*
X14492000Y-10545286D01*
X14520571Y-10531000D01*
X14592000Y-10531000D01*
X14620571Y-10545286D01*
X14634857Y-10559572D01*
X14649143Y-10588143D01*
X14649143Y-10659572D01*
X14634857Y-10688143D01*
X14620571Y-10702429D01*
X14592000Y-10716714D01*
X14520571Y-10716714D01*
X14492000Y-10702429D01*
X14477714Y-10688143D01*
X14834857Y-10416714D02*
X14863428Y-10416714D01*
X14892000Y-10431000D01*
X14906286Y-10445286D01*
X14920571Y-10473857D01*
X14934857Y-10531000D01*
X14934857Y-10602429D01*
X14920571Y-10659572D01*
X14906286Y-10688143D01*
X14892000Y-10702429D01*
X14863428Y-10716714D01*
X14834857Y-10716714D01*
X14806286Y-10702429D01*
X14792000Y-10688143D01*
X14777714Y-10659572D01*
X14763428Y-10602429D01*
X14763428Y-10531000D01*
X14777714Y-10473857D01*
X14792000Y-10445286D01*
X14806286Y-10431000D01*
X14834857Y-10416714D01*
X15063428Y-10716714D02*
X15063428Y-10516714D01*
X15063428Y-10545286D02*
X15077714Y-10531000D01*
X15106286Y-10516714D01*
X15149143Y-10516714D01*
X15177714Y-10531000D01*
X15192000Y-10559572D01*
X15192000Y-10716714D01*
X15192000Y-10559572D02*
X15206286Y-10531000D01*
X15234857Y-10516714D01*
X15277714Y-10516714D01*
X15306286Y-10531000D01*
X15320571Y-10559572D01*
X15320571Y-10716714D01*
X15463428Y-10716714D02*
X15463428Y-10516714D01*
X15463428Y-10545286D02*
X15477714Y-10531000D01*
X15506286Y-10516714D01*
X15549143Y-10516714D01*
X15577714Y-10531000D01*
X15592000Y-10559572D01*
X15592000Y-10716714D01*
X15592000Y-10559572D02*
X15606286Y-10531000D01*
X15634857Y-10516714D01*
X15677714Y-10516714D01*
X15706286Y-10531000D01*
X15720571Y-10559572D01*
X15720571Y-10716714D01*
X16306286Y-10402429D02*
X16049143Y-10788143D01*
X16692000Y-10416714D02*
X16720571Y-10416714D01*
X16749143Y-10431000D01*
X16763428Y-10445286D01*
X16777714Y-10473857D01*
X16792000Y-10531000D01*
X16792000Y-10602429D01*
X16777714Y-10659572D01*
X16763428Y-10688143D01*
X16749143Y-10702429D01*
X16720571Y-10716714D01*
X16692000Y-10716714D01*
X16663428Y-10702429D01*
X16649143Y-10688143D01*
X16634857Y-10659572D01*
X16620571Y-10602429D01*
X16620571Y-10531000D01*
X16634857Y-10473857D01*
X16649143Y-10445286D01*
X16663428Y-10431000D01*
X16692000Y-10416714D01*
X16920571Y-10688143D02*
X16934857Y-10702429D01*
X16920571Y-10716714D01*
X16906286Y-10702429D01*
X16920571Y-10688143D01*
X16920571Y-10716714D01*
X17120571Y-10416714D02*
X17149143Y-10416714D01*
X17177714Y-10431000D01*
X17192000Y-10445286D01*
X17206286Y-10473857D01*
X17220571Y-10531000D01*
X17220571Y-10602429D01*
X17206286Y-10659572D01*
X17192000Y-10688143D01*
X17177714Y-10702429D01*
X17149143Y-10716714D01*
X17120571Y-10716714D01*
X17092000Y-10702429D01*
X17077714Y-10688143D01*
X17063428Y-10659572D01*
X17049143Y-10602429D01*
X17049143Y-10531000D01*
X17063428Y-10473857D01*
X17077714Y-10445286D01*
X17092000Y-10431000D01*
X17120571Y-10416714D01*
X17363428Y-10716714D02*
X17420571Y-10716714D01*
X17449143Y-10702429D01*
X17463428Y-10688143D01*
X17492000Y-10645286D01*
X17506286Y-10588143D01*
X17506286Y-10473857D01*
X17492000Y-10445286D01*
X17477714Y-10431000D01*
X17449143Y-10416714D01*
X17392000Y-10416714D01*
X17363428Y-10431000D01*
X17349143Y-10445286D01*
X17334857Y-10473857D01*
X17334857Y-10545286D01*
X17349143Y-10573857D01*
X17363428Y-10588143D01*
X17392000Y-10602429D01*
X17449143Y-10602429D01*
X17477714Y-10588143D01*
X17492000Y-10573857D01*
X17506286Y-10545286D01*
X17677714Y-10545286D02*
X17649143Y-10531000D01*
X17634857Y-10516714D01*
X17620571Y-10488143D01*
X17620571Y-10473857D01*
X17634857Y-10445286D01*
X17649143Y-10431000D01*
X17677714Y-10416714D01*
X17734857Y-10416714D01*
X17763428Y-10431000D01*
X17777714Y-10445286D01*
X17792000Y-10473857D01*
X17792000Y-10488143D01*
X17777714Y-10516714D01*
X17763428Y-10531000D01*
X17734857Y-10545286D01*
X17677714Y-10545286D01*
X17649143Y-10559572D01*
X17634857Y-10573857D01*
X17620571Y-10602429D01*
X17620571Y-10659572D01*
X17634857Y-10688143D01*
X17649143Y-10702429D01*
X17677714Y-10716714D01*
X17734857Y-10716714D01*
X17763428Y-10702429D01*
X17777714Y-10688143D01*
X17792000Y-10659572D01*
X17792000Y-10602429D01*
X17777714Y-10573857D01*
X17763428Y-10559572D01*
X17734857Y-10545286D01*
X17906286Y-10416714D02*
X17906286Y-10473857D01*
X18020571Y-10416714D02*
X18020571Y-10473857D01*
X18463428Y-10831000D02*
X18449143Y-10816714D01*
X18420571Y-10773857D01*
X18406286Y-10745286D01*
X18392000Y-10702429D01*
X18377714Y-10631000D01*
X18377714Y-10573857D01*
X18392000Y-10502429D01*
X18406286Y-10459572D01*
X18420571Y-10431000D01*
X18449143Y-10388143D01*
X18463428Y-10373857D01*
X18706286Y-10516714D02*
X18706286Y-10716714D01*
X18634857Y-10402429D02*
X18563428Y-10616714D01*
X18749143Y-10616714D01*
X19092000Y-10716714D02*
X19092000Y-10416714D01*
X19220571Y-10716714D02*
X19220571Y-10559572D01*
X19206286Y-10531000D01*
X19177714Y-10516714D01*
X19134857Y-10516714D01*
X19106286Y-10531000D01*
X19092000Y-10545286D01*
X19406286Y-10716714D02*
X19377714Y-10702429D01*
X19363428Y-10688143D01*
X19349143Y-10659572D01*
X19349143Y-10573857D01*
X19363428Y-10545286D01*
X19377714Y-10531000D01*
X19406286Y-10516714D01*
X19449143Y-10516714D01*
X19477714Y-10531000D01*
X19492000Y-10545286D01*
X19506286Y-10573857D01*
X19506286Y-10659572D01*
X19492000Y-10688143D01*
X19477714Y-10702429D01*
X19449143Y-10716714D01*
X19406286Y-10716714D01*
X19677714Y-10716714D02*
X19649143Y-10702429D01*
X19634857Y-10673857D01*
X19634857Y-10416714D01*
X19906286Y-10702429D02*
X19877714Y-10716714D01*
X19820571Y-10716714D01*
X19792000Y-10702429D01*
X19777714Y-10673857D01*
X19777714Y-10559572D01*
X19792000Y-10531000D01*
X19820571Y-10516714D01*
X19877714Y-10516714D01*
X19906286Y-10531000D01*
X19920571Y-10559572D01*
X19920571Y-10588143D01*
X19777714Y-10616714D01*
X20034857Y-10702429D02*
X20063428Y-10716714D01*
X20120571Y-10716714D01*
X20149143Y-10702429D01*
X20163428Y-10673857D01*
X20163428Y-10659572D01*
X20149143Y-10631000D01*
X20120571Y-10616714D01*
X20077714Y-10616714D01*
X20049143Y-10602429D01*
X20034857Y-10573857D01*
X20034857Y-10559572D01*
X20049143Y-10531000D01*
X20077714Y-10516714D01*
X20120571Y-10516714D01*
X20149143Y-10531000D01*
X20263428Y-10831000D02*
X20277714Y-10816714D01*
X20306286Y-10773857D01*
X20320571Y-10745286D01*
X20334857Y-10702429D01*
X20349143Y-10631000D01*
X20349143Y-10573857D01*
X20334857Y-10502429D01*
X20320571Y-10459572D01*
X20306286Y-10431000D01*
X20277714Y-10388143D01*
X20263428Y-10373857D01*
M02*
