G04 #@! TF.GenerationSoftware,KiCad,Pcbnew,(5.1.7-0-10_14)*
G04 #@! TF.CreationDate,2020-10-07T21:58:26-07:00*
G04 #@! TF.ProjectId,RGB5050_mount,52474235-3035-4305-9f6d-6f756e742e6b,1*
G04 #@! TF.SameCoordinates,Original*
G04 #@! TF.FileFunction,Legend,Bot*
G04 #@! TF.FilePolarity,Positive*
%FSLAX46Y46*%
G04 Gerber Fmt 4.6, Leading zero omitted, Abs format (unit mm)*
G04 Created by KiCad (PCBNEW (5.1.7-0-10_14)) date 2020-10-07 21:58:26*
%MOMM*%
%LPD*%
G01*
G04 APERTURE LIST*
%ADD10C,0.127000*%
G04 APERTURE END LIST*
D10*
X155946021Y-85561714D02*
X155946021Y-86214857D01*
X155982307Y-86287428D01*
X156054878Y-86323714D01*
X156091164Y-86323714D01*
X155946021Y-85307714D02*
X155982307Y-85344000D01*
X155946021Y-85380285D01*
X155909735Y-85344000D01*
X155946021Y-85307714D01*
X155946021Y-85380285D01*
X155292878Y-86033428D02*
X155365450Y-86069714D01*
X155510592Y-86069714D01*
X155583164Y-86033428D01*
X155619450Y-85960857D01*
X155619450Y-85670571D01*
X155583164Y-85598000D01*
X155510592Y-85561714D01*
X155365450Y-85561714D01*
X155292878Y-85598000D01*
X155256592Y-85670571D01*
X155256592Y-85743142D01*
X155619450Y-85815714D01*
X154603450Y-86069714D02*
X154603450Y-85307714D01*
X154603450Y-86033428D02*
X154676021Y-86069714D01*
X154821164Y-86069714D01*
X154893735Y-86033428D01*
X154930021Y-85997142D01*
X154966307Y-85924571D01*
X154966307Y-85706857D01*
X154930021Y-85634285D01*
X154893735Y-85598000D01*
X154821164Y-85561714D01*
X154676021Y-85561714D01*
X154603450Y-85598000D01*
X154240592Y-85561714D02*
X154240592Y-86323714D01*
X154240592Y-85598000D02*
X154168021Y-85561714D01*
X154022878Y-85561714D01*
X153950307Y-85598000D01*
X153914021Y-85634285D01*
X153877735Y-85706857D01*
X153877735Y-85924571D01*
X153914021Y-85997142D01*
X153950307Y-86033428D01*
X154022878Y-86069714D01*
X154168021Y-86069714D01*
X154240592Y-86033428D01*
X153006878Y-85271428D02*
X153660021Y-86251142D01*
X152317450Y-86069714D02*
X152571450Y-85706857D01*
X152752878Y-86069714D02*
X152752878Y-85307714D01*
X152462592Y-85307714D01*
X152390021Y-85344000D01*
X152353735Y-85380285D01*
X152317450Y-85452857D01*
X152317450Y-85561714D01*
X152353735Y-85634285D01*
X152390021Y-85670571D01*
X152462592Y-85706857D01*
X152752878Y-85706857D01*
X151591735Y-85344000D02*
X151664307Y-85307714D01*
X151773164Y-85307714D01*
X151882021Y-85344000D01*
X151954592Y-85416571D01*
X151990878Y-85489142D01*
X152027164Y-85634285D01*
X152027164Y-85743142D01*
X151990878Y-85888285D01*
X151954592Y-85960857D01*
X151882021Y-86033428D01*
X151773164Y-86069714D01*
X151700592Y-86069714D01*
X151591735Y-86033428D01*
X151555450Y-85997142D01*
X151555450Y-85743142D01*
X151700592Y-85743142D01*
X150974878Y-85670571D02*
X150866021Y-85706857D01*
X150829735Y-85743142D01*
X150793450Y-85815714D01*
X150793450Y-85924571D01*
X150829735Y-85997142D01*
X150866021Y-86033428D01*
X150938592Y-86069714D01*
X151228878Y-86069714D01*
X151228878Y-85307714D01*
X150974878Y-85307714D01*
X150902307Y-85344000D01*
X150866021Y-85380285D01*
X150829735Y-85452857D01*
X150829735Y-85525428D01*
X150866021Y-85598000D01*
X150902307Y-85634285D01*
X150974878Y-85670571D01*
X151228878Y-85670571D01*
X150104021Y-85307714D02*
X150466878Y-85307714D01*
X150503164Y-85670571D01*
X150466878Y-85634285D01*
X150394307Y-85598000D01*
X150212878Y-85598000D01*
X150140307Y-85634285D01*
X150104021Y-85670571D01*
X150067735Y-85743142D01*
X150067735Y-85924571D01*
X150104021Y-85997142D01*
X150140307Y-86033428D01*
X150212878Y-86069714D01*
X150394307Y-86069714D01*
X150466878Y-86033428D01*
X150503164Y-85997142D01*
X149596021Y-85307714D02*
X149523450Y-85307714D01*
X149450878Y-85344000D01*
X149414592Y-85380285D01*
X149378307Y-85452857D01*
X149342021Y-85598000D01*
X149342021Y-85779428D01*
X149378307Y-85924571D01*
X149414592Y-85997142D01*
X149450878Y-86033428D01*
X149523450Y-86069714D01*
X149596021Y-86069714D01*
X149668592Y-86033428D01*
X149704878Y-85997142D01*
X149741164Y-85924571D01*
X149777450Y-85779428D01*
X149777450Y-85598000D01*
X149741164Y-85452857D01*
X149704878Y-85380285D01*
X149668592Y-85344000D01*
X149596021Y-85307714D01*
X148652592Y-85307714D02*
X149015450Y-85307714D01*
X149051735Y-85670571D01*
X149015450Y-85634285D01*
X148942878Y-85598000D01*
X148761450Y-85598000D01*
X148688878Y-85634285D01*
X148652592Y-85670571D01*
X148616307Y-85743142D01*
X148616307Y-85924571D01*
X148652592Y-85997142D01*
X148688878Y-86033428D01*
X148761450Y-86069714D01*
X148942878Y-86069714D01*
X149015450Y-86033428D01*
X149051735Y-85997142D01*
X148144592Y-85307714D02*
X148072021Y-85307714D01*
X147999450Y-85344000D01*
X147963164Y-85380285D01*
X147926878Y-85452857D01*
X147890592Y-85598000D01*
X147890592Y-85779428D01*
X147926878Y-85924571D01*
X147963164Y-85997142D01*
X147999450Y-86033428D01*
X148072021Y-86069714D01*
X148144592Y-86069714D01*
X148217164Y-86033428D01*
X148253450Y-85997142D01*
X148289735Y-85924571D01*
X148326021Y-85779428D01*
X148326021Y-85598000D01*
X148289735Y-85452857D01*
X148253450Y-85380285D01*
X148217164Y-85344000D01*
X148144592Y-85307714D01*
X147564021Y-85779428D02*
X146983450Y-85779428D01*
X146620592Y-86069714D02*
X146620592Y-85561714D01*
X146620592Y-85634285D02*
X146584307Y-85598000D01*
X146511735Y-85561714D01*
X146402878Y-85561714D01*
X146330307Y-85598000D01*
X146294021Y-85670571D01*
X146294021Y-86069714D01*
X146294021Y-85670571D02*
X146257735Y-85598000D01*
X146185164Y-85561714D01*
X146076307Y-85561714D01*
X146003735Y-85598000D01*
X145967450Y-85670571D01*
X145967450Y-86069714D01*
X145495735Y-86069714D02*
X145568307Y-86033428D01*
X145604592Y-85997142D01*
X145640878Y-85924571D01*
X145640878Y-85706857D01*
X145604592Y-85634285D01*
X145568307Y-85598000D01*
X145495735Y-85561714D01*
X145386878Y-85561714D01*
X145314307Y-85598000D01*
X145278021Y-85634285D01*
X145241735Y-85706857D01*
X145241735Y-85924571D01*
X145278021Y-85997142D01*
X145314307Y-86033428D01*
X145386878Y-86069714D01*
X145495735Y-86069714D01*
X144588592Y-85561714D02*
X144588592Y-86069714D01*
X144915164Y-85561714D02*
X144915164Y-85960857D01*
X144878878Y-86033428D01*
X144806307Y-86069714D01*
X144697450Y-86069714D01*
X144624878Y-86033428D01*
X144588592Y-85997142D01*
X144225735Y-85561714D02*
X144225735Y-86069714D01*
X144225735Y-85634285D02*
X144189450Y-85598000D01*
X144116878Y-85561714D01*
X144008021Y-85561714D01*
X143935450Y-85598000D01*
X143899164Y-85670571D01*
X143899164Y-86069714D01*
X143645164Y-85561714D02*
X143354878Y-85561714D01*
X143536307Y-85307714D02*
X143536307Y-85960857D01*
X143500021Y-86033428D01*
X143427450Y-86069714D01*
X143354878Y-86069714D01*
X155946021Y-87339714D02*
X155946021Y-86831714D01*
X155946021Y-86976857D02*
X155909735Y-86904285D01*
X155873450Y-86868000D01*
X155800878Y-86831714D01*
X155728307Y-86831714D01*
X155184021Y-87303428D02*
X155256592Y-87339714D01*
X155401735Y-87339714D01*
X155474307Y-87303428D01*
X155510592Y-87230857D01*
X155510592Y-86940571D01*
X155474307Y-86868000D01*
X155401735Y-86831714D01*
X155256592Y-86831714D01*
X155184021Y-86868000D01*
X155147735Y-86940571D01*
X155147735Y-87013142D01*
X155510592Y-87085714D01*
X154893735Y-86831714D02*
X154712307Y-87339714D01*
X154530878Y-86831714D01*
X154240592Y-87339714D02*
X154240592Y-86831714D01*
X154240592Y-86577714D02*
X154276878Y-86614000D01*
X154240592Y-86650285D01*
X154204307Y-86614000D01*
X154240592Y-86577714D01*
X154240592Y-86650285D01*
X153914021Y-87303428D02*
X153841450Y-87339714D01*
X153696307Y-87339714D01*
X153623735Y-87303428D01*
X153587450Y-87230857D01*
X153587450Y-87194571D01*
X153623735Y-87122000D01*
X153696307Y-87085714D01*
X153805164Y-87085714D01*
X153877735Y-87049428D01*
X153914021Y-86976857D01*
X153914021Y-86940571D01*
X153877735Y-86868000D01*
X153805164Y-86831714D01*
X153696307Y-86831714D01*
X153623735Y-86868000D01*
X153260878Y-87339714D02*
X153260878Y-86831714D01*
X153260878Y-86577714D02*
X153297164Y-86614000D01*
X153260878Y-86650285D01*
X153224592Y-86614000D01*
X153260878Y-86577714D01*
X153260878Y-86650285D01*
X152789164Y-87339714D02*
X152861735Y-87303428D01*
X152898021Y-87267142D01*
X152934307Y-87194571D01*
X152934307Y-86976857D01*
X152898021Y-86904285D01*
X152861735Y-86868000D01*
X152789164Y-86831714D01*
X152680307Y-86831714D01*
X152607735Y-86868000D01*
X152571450Y-86904285D01*
X152535164Y-86976857D01*
X152535164Y-87194571D01*
X152571450Y-87267142D01*
X152607735Y-87303428D01*
X152680307Y-87339714D01*
X152789164Y-87339714D01*
X152208592Y-86831714D02*
X152208592Y-87339714D01*
X152208592Y-86904285D02*
X152172307Y-86868000D01*
X152099735Y-86831714D01*
X151990878Y-86831714D01*
X151918307Y-86868000D01*
X151882021Y-86940571D01*
X151882021Y-87339714D01*
X150539450Y-87339714D02*
X150974878Y-87339714D01*
X150757164Y-87339714D02*
X150757164Y-86577714D01*
X150829735Y-86686571D01*
X150902307Y-86759142D01*
X150974878Y-86795428D01*
M02*
