G04 #@! TF.GenerationSoftware,KiCad,Pcbnew,(5.1.7-0-10_14)*
G04 #@! TF.CreationDate,2020-10-07T21:58:26-07:00*
G04 #@! TF.ProjectId,RGB5050_mount,52474235-3035-4305-9f6d-6f756e742e6b,1*
G04 #@! TF.SameCoordinates,Original*
G04 #@! TF.FileFunction,Legend,Top*
G04 #@! TF.FilePolarity,Positive*
%FSLAX46Y46*%
G04 Gerber Fmt 4.6, Leading zero omitted, Abs format (unit mm)*
G04 Created by KiCad (PCBNEW (5.1.7-0-10_14)) date 2020-10-07 21:58:26*
%MOMM*%
%LPD*%
G01*
G04 APERTURE LIST*
%ADD10C,0.152400*%
%ADD11C,0.127000*%
%ADD12C,0.120000*%
%ADD13C,0.150000*%
G04 APERTURE END LIST*
D10*
X156448155Y-86487000D02*
X156351393Y-86438619D01*
X156206250Y-86438619D01*
X156061107Y-86487000D01*
X155964345Y-86583761D01*
X155915964Y-86680523D01*
X155867583Y-86874047D01*
X155867583Y-87019190D01*
X155915964Y-87212714D01*
X155964345Y-87309476D01*
X156061107Y-87406238D01*
X156206250Y-87454619D01*
X156303012Y-87454619D01*
X156448155Y-87406238D01*
X156496536Y-87357857D01*
X156496536Y-87019190D01*
X156303012Y-87019190D01*
X156931964Y-87454619D02*
X156931964Y-86438619D01*
X157512536Y-87454619D01*
X157512536Y-86438619D01*
X157996345Y-87454619D02*
X157996345Y-86438619D01*
X158238250Y-86438619D01*
X158383393Y-86487000D01*
X158480155Y-86583761D01*
X158528536Y-86680523D01*
X158576917Y-86874047D01*
X158576917Y-87019190D01*
X158528536Y-87212714D01*
X158480155Y-87309476D01*
X158383393Y-87406238D01*
X158238250Y-87454619D01*
X157996345Y-87454619D01*
X141723654Y-86487000D02*
X141626892Y-86438619D01*
X141481749Y-86438619D01*
X141336606Y-86487000D01*
X141239844Y-86583761D01*
X141191463Y-86680523D01*
X141143082Y-86874047D01*
X141143082Y-87019190D01*
X141191463Y-87212714D01*
X141239844Y-87309476D01*
X141336606Y-87406238D01*
X141481749Y-87454619D01*
X141578511Y-87454619D01*
X141723654Y-87406238D01*
X141772035Y-87357857D01*
X141772035Y-87019190D01*
X141578511Y-87019190D01*
X142207463Y-87454619D02*
X142207463Y-86438619D01*
X142788035Y-87454619D01*
X142788035Y-86438619D01*
X143271844Y-87454619D02*
X143271844Y-86438619D01*
X143513749Y-86438619D01*
X143658892Y-86487000D01*
X143755654Y-86583761D01*
X143804035Y-86680523D01*
X143852416Y-86874047D01*
X143852416Y-87019190D01*
X143804035Y-87212714D01*
X143755654Y-87309476D01*
X143658892Y-87406238D01*
X143513749Y-87454619D01*
X143271844Y-87454619D01*
X155915964Y-76907571D02*
X156690060Y-76907571D01*
X156303012Y-77294619D02*
X156303012Y-76520523D01*
X157657679Y-76278619D02*
X157173869Y-76278619D01*
X157125488Y-76762428D01*
X157173869Y-76714047D01*
X157270631Y-76665666D01*
X157512536Y-76665666D01*
X157609298Y-76714047D01*
X157657679Y-76762428D01*
X157706060Y-76859190D01*
X157706060Y-77101095D01*
X157657679Y-77197857D01*
X157609298Y-77246238D01*
X157512536Y-77294619D01*
X157270631Y-77294619D01*
X157173869Y-77246238D01*
X157125488Y-77197857D01*
X157996345Y-76278619D02*
X158335012Y-77294619D01*
X158673679Y-76278619D01*
X141191463Y-76907571D02*
X141965559Y-76907571D01*
X141578511Y-77294619D02*
X141578511Y-76520523D01*
X142933178Y-76278619D02*
X142449368Y-76278619D01*
X142400987Y-76762428D01*
X142449368Y-76714047D01*
X142546130Y-76665666D01*
X142788035Y-76665666D01*
X142884797Y-76714047D01*
X142933178Y-76762428D01*
X142981559Y-76859190D01*
X142981559Y-77101095D01*
X142933178Y-77197857D01*
X142884797Y-77246238D01*
X142788035Y-77294619D01*
X142546130Y-77294619D01*
X142449368Y-77246238D01*
X142400987Y-77197857D01*
X143271844Y-76278619D02*
X143610511Y-77294619D01*
X143949178Y-76278619D01*
D11*
X155774571Y-84074000D02*
X155702000Y-84037714D01*
X155593142Y-84037714D01*
X155484285Y-84074000D01*
X155411714Y-84146571D01*
X155375428Y-84219142D01*
X155339142Y-84364285D01*
X155339142Y-84473142D01*
X155375428Y-84618285D01*
X155411714Y-84690857D01*
X155484285Y-84763428D01*
X155593142Y-84799714D01*
X155665714Y-84799714D01*
X155774571Y-84763428D01*
X155810857Y-84727142D01*
X155810857Y-84473142D01*
X155665714Y-84473142D01*
X144072428Y-81497714D02*
X144217571Y-81497714D01*
X144290142Y-81534000D01*
X144362714Y-81606571D01*
X144399000Y-81751714D01*
X144399000Y-82005714D01*
X144362714Y-82150857D01*
X144290142Y-82223428D01*
X144217571Y-82259714D01*
X144072428Y-82259714D01*
X143999857Y-82223428D01*
X143927285Y-82150857D01*
X143891000Y-82005714D01*
X143891000Y-81751714D01*
X143927285Y-81606571D01*
X143999857Y-81534000D01*
X144072428Y-81497714D01*
X155284714Y-79429428D02*
X155865285Y-79429428D01*
X155575000Y-79719714D02*
X155575000Y-79139142D01*
X144344571Y-84074000D02*
X144272000Y-84037714D01*
X144163142Y-84037714D01*
X144054285Y-84074000D01*
X143981714Y-84146571D01*
X143945428Y-84219142D01*
X143909142Y-84364285D01*
X143909142Y-84473142D01*
X143945428Y-84618285D01*
X143981714Y-84690857D01*
X144054285Y-84763428D01*
X144163142Y-84799714D01*
X144235714Y-84799714D01*
X144344571Y-84763428D01*
X144380857Y-84727142D01*
X144380857Y-84473142D01*
X144235714Y-84473142D01*
X155575000Y-82259714D02*
X155575000Y-81497714D01*
X143854714Y-79429428D02*
X144435285Y-79429428D01*
X144145000Y-79719714D02*
X144145000Y-79139142D01*
D12*
X152480000Y-84535000D02*
X147360000Y-84535000D01*
X152360000Y-79295000D02*
X147360000Y-79295000D01*
X152480000Y-84215000D02*
X152480000Y-84535000D01*
X148328748Y-77370000D02*
X148851252Y-77370000D01*
X148328748Y-78840000D02*
X148851252Y-78840000D01*
X146115000Y-80645000D02*
G75*
G03*
X146115000Y-80645000I-700000J0D01*
G01*
X155005000Y-80645000D02*
G75*
G03*
X155005000Y-80645000I-700000J0D01*
G01*
X156150000Y-85785000D02*
X158810000Y-85785000D01*
X156150000Y-80645000D02*
X156150000Y-85785000D01*
X158810000Y-80645000D02*
X158810000Y-85785000D01*
X156150000Y-80645000D02*
X158810000Y-80645000D01*
X156150000Y-79375000D02*
X156150000Y-78045000D01*
X156150000Y-78045000D02*
X157480000Y-78045000D01*
X140910000Y-78045000D02*
X142240000Y-78045000D01*
X140910000Y-79375000D02*
X140910000Y-78045000D01*
X140910000Y-80645000D02*
X143570000Y-80645000D01*
X143570000Y-80645000D02*
X143570000Y-85785000D01*
X140910000Y-80645000D02*
X140910000Y-85785000D01*
X140910000Y-85785000D02*
X143570000Y-85785000D01*
D13*
X146883809Y-86177380D02*
X146550476Y-85701190D01*
X146312380Y-86177380D02*
X146312380Y-85177380D01*
X146693333Y-85177380D01*
X146788571Y-85225000D01*
X146836190Y-85272619D01*
X146883809Y-85367857D01*
X146883809Y-85510714D01*
X146836190Y-85605952D01*
X146788571Y-85653571D01*
X146693333Y-85701190D01*
X146312380Y-85701190D01*
X147836190Y-85225000D02*
X147740952Y-85177380D01*
X147598095Y-85177380D01*
X147455238Y-85225000D01*
X147360000Y-85320238D01*
X147312380Y-85415476D01*
X147264761Y-85605952D01*
X147264761Y-85748809D01*
X147312380Y-85939285D01*
X147360000Y-86034523D01*
X147455238Y-86129761D01*
X147598095Y-86177380D01*
X147693333Y-86177380D01*
X147836190Y-86129761D01*
X147883809Y-86082142D01*
X147883809Y-85748809D01*
X147693333Y-85748809D01*
X148645714Y-85653571D02*
X148788571Y-85701190D01*
X148836190Y-85748809D01*
X148883809Y-85844047D01*
X148883809Y-85986904D01*
X148836190Y-86082142D01*
X148788571Y-86129761D01*
X148693333Y-86177380D01*
X148312380Y-86177380D01*
X148312380Y-85177380D01*
X148645714Y-85177380D01*
X148740952Y-85225000D01*
X148788571Y-85272619D01*
X148836190Y-85367857D01*
X148836190Y-85463095D01*
X148788571Y-85558333D01*
X148740952Y-85605952D01*
X148645714Y-85653571D01*
X148312380Y-85653571D01*
X149074285Y-86272619D02*
X149836190Y-86272619D01*
X150550476Y-85177380D02*
X150074285Y-85177380D01*
X150026666Y-85653571D01*
X150074285Y-85605952D01*
X150169523Y-85558333D01*
X150407619Y-85558333D01*
X150502857Y-85605952D01*
X150550476Y-85653571D01*
X150598095Y-85748809D01*
X150598095Y-85986904D01*
X150550476Y-86082142D01*
X150502857Y-86129761D01*
X150407619Y-86177380D01*
X150169523Y-86177380D01*
X150074285Y-86129761D01*
X150026666Y-86082142D01*
X151217142Y-85177380D02*
X151312380Y-85177380D01*
X151407619Y-85225000D01*
X151455238Y-85272619D01*
X151502857Y-85367857D01*
X151550476Y-85558333D01*
X151550476Y-85796428D01*
X151502857Y-85986904D01*
X151455238Y-86082142D01*
X151407619Y-86129761D01*
X151312380Y-86177380D01*
X151217142Y-86177380D01*
X151121904Y-86129761D01*
X151074285Y-86082142D01*
X151026666Y-85986904D01*
X150979047Y-85796428D01*
X150979047Y-85558333D01*
X151026666Y-85367857D01*
X151074285Y-85272619D01*
X151121904Y-85225000D01*
X151217142Y-85177380D01*
X152455238Y-85177380D02*
X151979047Y-85177380D01*
X151931428Y-85653571D01*
X151979047Y-85605952D01*
X152074285Y-85558333D01*
X152312380Y-85558333D01*
X152407619Y-85605952D01*
X152455238Y-85653571D01*
X152502857Y-85748809D01*
X152502857Y-85986904D01*
X152455238Y-86082142D01*
X152407619Y-86129761D01*
X152312380Y-86177380D01*
X152074285Y-86177380D01*
X151979047Y-86129761D01*
X151931428Y-86082142D01*
X153121904Y-85177380D02*
X153217142Y-85177380D01*
X153312380Y-85225000D01*
X153360000Y-85272619D01*
X153407619Y-85367857D01*
X153455238Y-85558333D01*
X153455238Y-85796428D01*
X153407619Y-85986904D01*
X153360000Y-86082142D01*
X153312380Y-86129761D01*
X153217142Y-86177380D01*
X153121904Y-86177380D01*
X153026666Y-86129761D01*
X152979047Y-86082142D01*
X152931428Y-85986904D01*
X152883809Y-85796428D01*
X152883809Y-85558333D01*
X152931428Y-85367857D01*
X152979047Y-85272619D01*
X153026666Y-85225000D01*
X153121904Y-85177380D01*
M02*
